# xmcd
#
# Track frame offsets: 
#        150
#        14707
#        33290
#
# Disc length: 600 seconds
#
# Revision: 1
# Processed by: cddbd v1.5.2PL0 Copyright (c) Steve Scherf et al.
# Submitted via: ExactAudioCopyFreeDBPlugin 1.0
#
DISCID=1d025603
DTITLE=Manic Street Preachers - Stay Beautiful [Re-Issue]
DYEAR=1997
DGENRE=Country
TTITLE0=Stay Beautiful
TTITLE1=R. P. McMurphy
TTITLE2=Soul Contamination
EXTD=
EXTT0=
EXTT1=
EXTT2=
PLAYORDER=
